<svg xmlns="http://www.w3.org/2000/svg" width="460" height="614" viewBox="0 0 460 614">
  <rect x="0.5" y="0.5" width="459" height="613" rx="10" fill="#faf9f5" stroke="#e8e6dc" stroke-width="1"/>
  <text x="25" y="32" font-size="17" font-weight="700" fill="#d97757" font-family="Segoe UI, Ubuntu, Sans-Serif">NeetCode Progress</text>
  <text x="25" y="52" font-size="12" fill="#6a5a4a" font-family="Segoe UI, Ubuntu, Sans-Serif">14 problems synced · 33 submissions</text>
  
    <text x="25" y="76" font-size="13" font-weight="600" fill="#141413" font-family="Segoe UI, Ubuntu, Sans-Serif">Easy</text>
    <text x="435" y="76" font-size="12" fill="#6a5a4a" text-anchor="end" font-family="Segoe UI, Ubuntu, Sans-Serif">11 / 224</text>
    <rect x="25" y="84" width="410" height="6" rx="3" fill="#e8e6dc"/>
    <rect x="25" y="84" width="20" height="6" rx="3" fill="#00b8a3"/>
    <text x="25" y="108" font-size="13" font-weight="600" fill="#141413" font-family="Segoe UI, Ubuntu, Sans-Serif">Medium</text>
    <text x="435" y="108" font-size="12" fill="#6a5a4a" text-anchor="end" font-family="Segoe UI, Ubuntu, Sans-Serif">3 / 600</text>
    <rect x="25" y="116" width="410" height="6" rx="3" fill="#e8e6dc"/>
    <rect x="25" y="116" width="4" height="6" rx="3" fill="#ffc01e"/>
    <text x="25" y="140" font-size="13" font-weight="600" fill="#141413" font-family="Segoe UI, Ubuntu, Sans-Serif">Hard</text>
    <text x="435" y="140" font-size="12" fill="#6a5a4a" text-anchor="end" font-family="Segoe UI, Ubuntu, Sans-Serif">0 / 149</text>
    <rect x="25" y="148" width="410" height="6" rx="3" fill="#e8e6dc"/>
    
  <line x1="25" y1="174" x2="435" y2="174" stroke="#e8e6dc" stroke-width="1"/><text x="25" y="198" font-size="13" font-weight="600" fill="#141413" font-family="Segoe UI, Ubuntu, Sans-Serif">Recent Activities</text>
    <text x="25" y="224" font-size="12" fill="#6a5a4a" font-family="Segoe UI, Ubuntu, Sans-Serif">26.10.1</text>
    <rect x="88" y="212" width="28" height="16" rx="3" fill="#2cbb5d"/>
    <text x="102.0" y="223" font-size="10" font-weight="700" fill="#ffffff" text-anchor="middle" font-family="Segoe UI, Ubuntu, Sans-Serif">AC</text>
    <text x="126" y="224" font-size="12" font-weight="700" fill="#141413" font-family="Segoe UI, Ubuntu, Sans-Serif">Python</text>
    <text x="435" y="224" font-size="12" fill="#6a5a4a" text-anchor="end" font-family="Segoe UI, Ubuntu, Sans-Serif">Implement Stack Using Queues</text>
    <text x="25" y="250" font-size="12" fill="#6a5a4a" font-family="Segoe UI, Ubuntu, Sans-Serif">26.10.1</text>
    <rect x="88" y="238" width="28" height="16" rx="3" fill="#2cbb5d"/>
    <text x="102.0" y="249" font-size="10" font-weight="700" fill="#ffffff" text-anchor="middle" font-family="Segoe UI, Ubuntu, Sans-Serif">AC</text>
    <text x="126" y="250" font-size="12" font-weight="700" fill="#141413" font-family="Segoe UI, Ubuntu, Sans-Serif">Python</text>
    <text x="435" y="250" font-size="12" fill="#6a5a4a" text-anchor="end" font-family="Segoe UI, Ubuntu, Sans-Serif">Number of Students Unable to…</text>
    <text x="25" y="276" font-size="12" fill="#6a5a4a" font-family="Segoe UI, Ubuntu, Sans-Serif">26.9.30</text>
    <rect x="88" y="264" width="28" height="16" rx="3" fill="#2cbb5d"/>
    <text x="102.0" y="275" font-size="10" font-weight="700" fill="#ffffff" text-anchor="middle" font-family="Segoe UI, Ubuntu, Sans-Serif">AC</text>
    <text x="126" y="276" font-size="12" font-weight="700" fill="#141413" font-family="Segoe UI, Ubuntu, Sans-Serif">Python</text>
    <text x="435" y="276" font-size="12" fill="#6a5a4a" text-anchor="end" font-family="Segoe UI, Ubuntu, Sans-Serif">Design Browser History</text>
    <text x="25" y="302" font-size="12" fill="#6a5a4a" font-family="Segoe UI, Ubuntu, Sans-Serif">26.9.29</text>
    <rect x="88" y="290" width="28" height="16" rx="3" fill="#2cbb5d"/>
    <text x="102.0" y="301" font-size="10" font-weight="700" fill="#ffffff" text-anchor="middle" font-family="Segoe UI, Ubuntu, Sans-Serif">AC</text>
    <text x="126" y="302" font-size="12" font-weight="700" fill="#141413" font-family="Segoe UI, Ubuntu, Sans-Serif">Python</text>
    <text x="435" y="302" font-size="12" fill="#6a5a4a" text-anchor="end" font-family="Segoe UI, Ubuntu, Sans-Serif">Design Linked List</text>
  <text x="25" y="334" font-size="11" fill="#6a5a4a" font-family="Segoe UI, Ubuntu, Sans-Serif">Submission activity (last 12 weeks)</text><rect x="25" y="344" width="31" height="31" rx="3" fill="#e8e6dc"><title>2026-07-10: 0 submissions</title></rect><rect x="25" y="378" width="31" height="31" rx="3" fill="#e8e6dc"><title>2026-07-11: 0 submissions</title></rect><rect x="25" y="412" width="31" height="31" rx="3" fill="#e8e6dc"><title>2026-07-12: 0 submissions</title></rect><rect x="25" y="446" width="31" height="31" rx="3" fill="#e8e6dc"><title>2026-07-13: 0 submissions</title></rect><rect x="25" y="480" width="31" height="31" rx="3" fill="#e8e6dc"><title>2026-07-14: 0 submissions</title></rect><rect x="25" y="514" width="31" height="31" rx="3" fill="#e8e6dc"><title>2026-07-15: 0 submissions</title></rect><rect x="25" y="548" width="31" height="31" rx="3" fill="#e8e6dc"><title>2026-07-16: 0 submissions</title></rect><rect x="59" y="344" width="31" height="31" rx="3" fill="#e8e6dc"><title>2026-07-17: 0 submissions</title></rect><rect x="59" y="378" width="31" height="31" rx="3" fill="#e8e6dc"><title>2026-07-18: 0 submissions</title></rect><rect x="59" y="412" width="31" height="31" rx="3" fill="#e8e6dc"><title>2026-07-19: 0 submissions</title></rect><rect x="59" y="446" width="31" height="31" rx="3" fill="#e8e6dc"><title>2026-07-20: 0 submissions</title></rect><rect x="59" y="480" width="31" height="31" rx="3" fill="#e8e6dc"><title>2026-07-21: 0 submissions</title></rect><rect x="59" y="514" width="31" height="31" rx="3" fill="#e8e6dc"><title>2026-07-22: 0 submissions</title></rect><rect x="59" y="548" width="31" height="31" rx="3" fill="#e8e6dc"><title>2026-07-23: 0 submissions</title></rect><rect x="93" y="344" width="31" height="31" rx="3" fill="#e8e6dc"><title>2026-07-24: 0 submissions</title></rect><rect x="93" y="378" width="31" height="31" rx="3" fill="#e8e6dc"><title>2026-07-25: 0 submissions</title></rect><rect x="93" y="412" width="31" height="31" rx="3" fill="#e8e6dc"><title>2026-07-26: 0 submissions</title></rect><rect x="93" y="446" width="31" height="31" rx="3" fill="#e8e6dc"><title>2026-07-27: 0 submissions</title></rect><rect x="93" y="480" width="31" height="31" rx="3" fill="#e8e6dc"><title>2026-07-28: 0 submissions</title></rect><rect x="93" y="514" width="31" height="31" rx="3" fill="#e8e6dc"><title>2026-07-29: 0 submissions</title></rect><rect x="93" y="548" width="31" height="31" rx="3" fill="#e8e6dc"><title>2026-07-30: 0 submissions</title></rect><rect x="127" y="344" width="31" height="31" rx="3" fill="#e8e6dc"><title>2026-07-31: 0 submissions</title></rect><rect x="127" y="378" width="31" height="31" rx="3" fill="#e8e6dc"><title>2026-08-01: 0 submissions</title></rect><rect x="127" y="412" width="31" height="31" rx="3" fill="#e8e6dc"><title>2026-08-02: 0 submissions</title></rect><rect x="127" y="446" width="31" height="31" rx="3" fill="#e8e6dc"><title>2026-08-03: 0 submissions</title></rect><rect x="127" y="480" width="31" height="31" rx="3" fill="#e8e6dc"><title>2026-08-04: 0 submissions</title></rect><rect x="127" y="514" width="31" height="31" rx="3" fill="#e8e6dc"><title>2026-08-05: 0 submissions</title></rect><rect x="127" y="548" width="31" height="31" rx="3" fill="#e8e6dc"><title>2026-08-06: 0 submissions</title></rect><rect x="161" y="344" width="31" height="31" rx="3" fill="#e8e6dc"><title>2026-08-07: 0 submissions</title></rect><rect x="161" y="378" width="31" height="31" rx="3" fill="#e8e6dc"><title>2026-08-08: 0 submissions</title></rect><rect x="161" y="412" width="31" height="31" rx="3" fill="#e8e6dc"><title>2026-08-09: 0 submissions</title></rect><rect x="161" y="446" width="31" height="31" rx="3" fill="#e8e6dc"><title>2026-08-10: 0 submissions</title></rect><rect x="161" y="480" width="31" height="31" rx="3" fill="#e8e6dc"><title>2026-08-11: 0 submissions</title></rect><rect x="161" y="514" width="31" height="31" rx="3" fill="#e8e6dc"><title>2026-08-12: 0 submissions</title></rect><rect x="161" y="548" width="31" height="31" rx="3" fill="#e8e6dc"><title>2026-08-13: 0 submissions</title></rect><rect x="195" y="344" width="31" height="31" rx="3" fill="#e8e6dc"><title>2026-08-14: 0 submissions</title></rect><rect x="195" y="378" width="31" height="31" rx="3" fill="#e8e6dc"><title>2026-08-15: 0 submissions</title></rect><rect x="195" y="412" width="31" height="31" rx="3" fill="#e8e6dc"><title>2026-08-16: 0 submissions</title></rect><rect x="195" y="446" width="31" height="31" rx="3" fill="#e8e6dc"><title>2026-08-17: 0 submissions</title></rect><rect x="195" y="480" width="31" height="31" rx="3" fill="#e8e6dc"><title>2026-08-18: 0 submissions</title></rect><rect x="195" y="514" width="31" height="31" rx="3" fill="#e8e6dc"><title>2026-08-19: 0 submissions</title></rect><rect x="195" y="548" width="31" height="31" rx="3" fill="#e8e6dc"><title>2026-08-20: 0 submissions</title></rect><rect x="229" y="344" width="31" height="31" rx="3" fill="#e8e6dc"><title>2026-08-21: 0 submissions</title></rect><rect x="229" y="378" width="31" height="31" rx="3" fill="#e8e6dc"><title>2026-08-22: 0 submissions</title></rect><rect x="229" y="412" width="31" height="31" rx="3" fill="#e8e6dc"><title>2026-08-23: 0 submissions</title></rect><rect x="229" y="446" width="31" height="31" rx="3" fill="#e8e6dc"><title>2026-08-24: 0 submissions</title></rect><rect x="229" y="480" width="31" height="31" rx="3" fill="#e8e6dc"><title>2026-08-25: 0 submissions</title></rect><rect x="229" y="514" width="31" height="31" rx="3" fill="#e8e6dc"><title>2026-08-26: 0 submissions</title></rect><rect x="229" y="548" width="31" height="31" rx="3" fill="#e8e6dc"><title>2026-08-27: 0 submissions</title></rect><rect x="263" y="344" width="31" height="31" rx="3" fill="#e8e6dc"><title>2026-08-28: 0 submissions</title></rect><rect x="263" y="378" width="31" height="31" rx="3" fill="#e8e6dc"><title>2026-08-29: 0 submissions</title></rect><rect x="263" y="412" width="31" height="31" rx="3" fill="#e8e6dc"><title>2026-08-30: 0 submissions</title></rect><rect x="263" y="446" width="31" height="31" rx="3" fill="#e8e6dc"><title>2026-08-31: 0 submissions</title></rect><rect x="263" y="480" width="31" height="31" rx="3" fill="#e8e6dc"><title>2026-09-01: 0 submissions</title></rect><rect x="263" y="514" width="31" height="31" rx="3" fill="#e8e6dc"><title>2026-09-02: 0 submissions</title></rect><rect x="263" y="548" width="31" height="31" rx="3" fill="#e8e6dc"><title>2026-09-03: 0 submissions</title></rect><rect x="297" y="344" width="31" height="31" rx="3" fill="#e8e6dc"><title>2026-09-04: 0 submissions</title></rect><rect x="297" y="378" width="31" height="31" rx="3" fill="#e8e6dc"><title>2026-09-05: 0 submissions</title></rect><rect x="297" y="412" width="31" height="31" rx="3" fill="#e8e6dc"><title>2026-09-06: 0 submissions</title></rect><rect x="297" y="446" width="31" height="31" rx="3" fill="#e8e6dc"><title>2026-09-07: 0 submissions</title></rect><rect x="297" y="480" width="31" height="31" rx="3" fill="#e8e6dc"><title>2026-09-08: 0 submissions</title></rect><rect x="297" y="514" width="31" height="31" rx="3" fill="#e8e6dc"><title>2026-09-09: 0 submissions</title></rect><rect x="297" y="548" width="31" height="31" rx="3" fill="#e8e6dc"><title>2026-09-10: 0 submissions</title></rect><rect x="331" y="344" width="31" height="31" rx="3" fill="#e8e6dc"><title>2026-09-11: 0 submissions</title></rect><rect x="331" y="378" width="31" height="31" rx="3" fill="#e8e6dc"><title>2026-09-12: 0 submissions</title></rect><rect x="331" y="412" width="31" height="31" rx="3" fill="#e8e6dc"><title>2026-09-13: 0 submissions</title></rect><rect x="331" y="446" width="31" height="31" rx="3" fill="#e8e6dc"><title>2026-09-14: 0 submissions</title></rect><rect x="331" y="480" width="31" height="31" rx="3" fill="#e8e6dc"><title>2026-09-15: 0 submissions</title></rect><rect x="331" y="514" width="31" height="31" rx="3" fill="#e8e6dc"><title>2026-09-16: 0 submissions</title></rect><rect x="331" y="548" width="31" height="31" rx="3" fill="#e8e6dc"><title>2026-09-17: 0 submissions</title></rect><rect x="365" y="344" width="31" height="31" rx="3" fill="#e8e6dc"><title>2026-09-18: 0 submissions</title></rect><rect x="365" y="378" width="31" height="31" rx="3" fill="#e8e6dc"><title>2026-09-19: 0 submissions</title></rect><rect x="365" y="412" width="31" height="31" rx="3" fill="#e8e6dc"><title>2026-09-20: 0 submissions</title></rect><rect x="365" y="446" width="31" height="31" rx="3" fill="#e8e6dc"><title>2026-09-21: 0 submissions</title></rect><rect x="365" y="480" width="31" height="31" rx="3" fill="#e8e6dc"><title>2026-09-22: 0 submissions</title></rect><rect x="365" y="514" width="31" height="31" rx="3" fill="#e8e6dc"><title>2026-09-23: 0 submissions</title></rect><rect x="365" y="548" width="31" height="31" rx="3" fill="#e8e6dc"><title>2026-09-24: 0 submissions</title></rect><rect x="399" y="344" width="31" height="31" rx="3" fill="#e8c9a0"><title>2026-09-25: 2 submissions</title></rect><rect x="399" y="378" width="31" height="31" rx="3" fill="#d97757"><title>2026-09-26: 11 submissions</title></rect><rect x="399" y="412" width="31" height="31" rx="3" fill="#d97757"><title>2026-09-27: 8 submissions</title></rect><rect x="399" y="446" width="31" height="31" rx="3" fill="#f1ddc9"><title>2026-09-28: 1 submission</title></rect><rect x="399" y="480" width="31" height="31" rx="3" fill="#d97757"><title>2026-09-29: 7 submissions</title></rect><rect x="399" y="514" width="31" height="31" rx="3" fill="#e8c9a0"><title>2026-09-30: 3 submissions</title></rect><rect x="399" y="548" width="31" height="31" rx="3" fill="#d97757"><title>2026-10-01: 6 submissions</title></rect><text x="334" y="598" font-size="10" fill="#6a5a4a" text-anchor="end" font-family="Segoe UI, Ubuntu, Sans-Serif">Less</text><rect x="340" y="588" width="10" height="10" rx="2" fill="#e8e6dc"/><rect x="352" y="588" width="10" height="10" rx="2" fill="#f1ddc9"/><rect x="364" y="588" width="10" height="10" rx="2" fill="#e8c9a0"/><rect x="376" y="588" width="10" height="10" rx="2" fill="#D4A27F"/><rect x="388" y="588" width="10" height="10" rx="2" fill="#d97757"/><text x="430" y="598" font-size="10" fill="#6a5a4a" text-anchor="end" font-family="Segoe UI, Ubuntu, Sans-Serif">More</text>
</svg>